<svg width="150" height="105" viewBox="0 0 150 105" fill="none" xmlns="http://www.w3.org/2000/svg">
<path d="M149.184 90.256C149.267 88.602 150.023 83.9824 149.999 83.0845C149.917 71.577 142.615 33.652 141.446 24.4129L141.375 23.8458C140.973 20.2187 140.819 15.9064 139.484 12.4801C138.138 9.03023 133.778 7.82514 130.635 6.60823C117.627 1.64607 102.942 -2.53632 89.1421 1.8351C83.7547 3.53641 78.8988 6.57278 75 11.3577C71.113 6.57278 66.2453 3.53641 60.8697 1.8351C47.0701 -2.53632 32.3845 1.64607 19.3766 6.60823C16.2339 7.81332 11.8506 9.01842 10.5156 12.4801C9.18053 15.9064 9.02693 20.2069 8.62524 23.8458L8.55435 24.4129C7.3847 33.652 0.0950513 71.577 0.00053403 83.0845C-0.0230953 83.9943 0.744858 88.602 0.82756 90.256C0.945707 92.6426 0.662155 95.041 0.780302 97.4157C0.544008 98.2427 0.756672 99.0225 1.2647 99.6369C1.59551 100.275 2.10354 100.665 2.65883 100.866C3.923 102.26 6.21504 101.338 7.71551 100.866C21.1606 96.5178 35.9407 96.6832 49.8111 98.5263C52.2686 98.8453 54.7142 99.247 57.148 99.7196C59.6764 100.216 62.0748 101.114 64.4968 101.976C66.4934 102.685 68.5846 103.276 70.6876 103.677C72.1999 104.02 73.6768 104.162 74.3502 104.174C74.5865 104.174 74.7991 104.15 75.0236 104.138C75.2481 104.138 75.4726 104.174 75.6971 104.174C76.3705 104.174 77.8473 104.032 79.3596 103.677C81.4626 103.276 83.5538 102.685 85.5505 101.976C87.9725 101.114 90.3827 100.216 92.911 99.7196C95.3448 99.247 97.7905 98.8453 100.248 98.5263C114.107 96.6832 128.898 96.5178 142.344 100.866C143.832 101.35 146.124 102.26 147.388 100.866C147.956 100.665 148.452 100.275 148.783 99.6369C149.291 99.0225 149.503 98.2427 149.267 97.4157C149.35 95.0291 149.066 92.6426 149.184 90.256ZM42.3325 74.8143C36.9095 74.637 31.4748 74.9088 26.1109 75.6649C21.5032 76.3147 16.9546 77.3426 12.5241 78.7249C11.4489 79.0557 10.2438 79.3275 9.22778 79.8355C8.57798 80.1663 8.04632 80.5444 7.4674 79.8237C6.664 78.8549 7.19566 77.0945 7.32562 75.9839C7.58555 73.7509 7.88091 71.5298 8.22354 69.3086C9.71218 59.4198 11.7089 49.6254 13.0675 39.7129C13.6583 35.3297 14.1427 30.911 14.7098 26.5277C14.9933 24.2711 15.3123 22.0145 15.6786 19.7698C16.1275 17.0169 16.2221 15.0793 18.7977 13.4135C23.1809 10.5779 28.4384 9.3256 33.4597 8.10869C38.8708 6.79726 44.2701 5.68668 49.8702 5.89934C53.7927 6.05293 57.6088 7.09263 61.0705 8.9239C62.7482 9.81 64.355 10.8497 65.8791 11.9957C67.3914 13.1181 69.2344 14.3232 70.4395 15.7646C71.5147 17.0406 71.8573 18.1984 71.9636 19.5217C71.2193 36.4521 71.3374 78.4296 71.4674 81.4068C71.4792 81.655 71.5029 81.9031 71.5147 82.1512C71.4556 82.4702 71.2784 82.7183 70.7585 82.7183C70.1324 82.7301 69.4471 82.3166 68.9036 82.033C67.7812 81.4423 66.647 80.8752 65.5128 80.3435C58.1759 76.8818 50.4491 75.0742 42.3325 74.8143ZM142.509 79.8119C141.918 80.5326 141.398 80.1545 140.749 79.8237C139.744 79.3156 138.539 79.0439 137.452 78.7131C133.022 77.3308 128.473 76.3147 123.865 75.6531C118.502 74.897 113.055 74.637 107.632 74.8024C99.5272 75.0624 91.8004 76.87 84.4517 80.3317C83.3175 80.8752 82.1833 81.4423 81.0609 82.0212C80.5174 82.3048 79.8322 82.7065 79.1942 82.7065C78.6744 82.7065 78.4971 82.4583 78.4381 82.1394C78.4499 81.8912 78.4853 81.6431 78.4853 81.395C78.6153 78.4177 78.7452 36.4402 77.9891 19.5098C78.0954 18.1866 78.4381 17.0288 79.5014 15.7528C80.7301 14.3114 82.5614 13.0945 84.0737 11.9839C85.5977 10.8497 87.1927 9.79819 88.8822 8.91209C92.3557 7.08081 96.16 6.04112 100.083 5.88753C105.683 5.66305 111.082 6.78544 116.493 8.09687C121.514 9.31378 126.772 10.5543 131.167 13.4017C133.742 15.0675 133.837 17.0051 134.286 19.7579C134.652 22.0027 134.971 24.2593 135.255 26.5159C135.81 30.911 136.294 35.3179 136.897 39.7011C138.256 49.6018 140.264 59.4079 141.741 69.2968C142.06 71.518 142.379 73.7391 142.639 75.9721C142.781 77.0827 143.312 78.8431 142.509 79.8119Z" fill="#0C7478"/>
<path d="M62.0749 19.12C50.8864 13.8743 35.8109 13.5907 24.5515 18.9782C21.5742 20.4078 24.1735 24.7201 27.1271 23.3851C36.7088 19.0136 49.8467 19.6753 59.1448 24.1294C62.5002 25.7244 65.4421 20.7031 62.0749 19.12ZM61.7204 32.9431C49.8113 27.721 34.4995 25.748 22.484 31.9389C19.8729 33.2857 22.165 36.9719 24.7524 35.8141C35.7755 30.8874 48.9842 33.782 59.7001 37.7517C62.4766 38.7914 64.4496 34.1364 61.7204 32.9431ZM61.0943 46.7308C59.8301 45.6675 58.0697 45.1713 56.5456 44.616C45.4871 40.5754 30.8015 40.41 20.1801 45.8447C17.8408 47.038 19.8138 50.4406 22.1177 49.779C27.9069 48.1368 33.3534 47.227 39.3671 47.168C44.0812 47.1207 48.3581 47.6169 52.8594 48.9638C54.2181 49.3655 55.5177 49.5191 56.8174 50.1334C57.7507 50.5706 58.9086 51.1259 59.9364 51.2558C62.1812 51.5276 62.642 48.2313 61.3778 46.9789L61.0943 46.7308ZM59.9246 60.0459C47.1412 54.0205 32.7982 55.131 19.8611 59.6915C17.191 60.6367 18.467 64.7482 21.1843 63.8975C27.2689 61.9836 32.3374 60.554 38.8 60.4713C45.0145 60.4004 51.7607 62.4325 57.4553 64.6655C60.5153 65.8824 63.0319 61.511 59.9246 60.0459ZM90.8318 24.1176C100.13 19.6634 113.268 19.0136 122.849 23.3732C125.791 24.7201 128.402 20.3959 125.425 18.9664C114.178 13.5789 99.102 13.8624 87.9135 19.1081C84.5346 20.7031 87.4646 25.7244 90.8318 24.1176ZM90.2883 37.7517C101.004 33.782 114.213 30.8874 125.236 35.8141C127.823 36.9719 130.116 33.2857 127.504 31.9389C115.477 25.748 100.165 27.721 88.268 32.9431C85.5388 34.1364 87.5 38.7914 90.2883 37.7517ZM90.0402 51.2677C91.0799 51.1377 92.2141 50.5824 93.1474 50.1453C94.4589 49.5309 95.7585 49.3773 97.1172 48.9756C101.619 47.6405 105.895 47.1443 110.61 47.1798C116.623 47.227 122.082 48.1368 127.871 49.7908C130.163 50.4524 132.136 47.038 129.808 45.8565C119.187 40.4218 104.49 40.5872 93.4428 44.6278C91.9187 45.1831 90.1583 45.6675 88.8823 46.7426L88.5988 47.0026C87.3228 48.2313 87.8072 51.5394 90.0402 51.2677ZM130.127 59.6915C117.19 55.131 102.847 54.0205 90.0638 60.0459C86.9566 61.511 89.4731 65.8824 92.5449 64.6655C98.2277 62.4325 104.962 60.4004 111.188 60.4713C117.639 60.554 122.72 61.9836 128.792 63.8975C131.521 64.76 132.797 60.6367 130.127 59.6915Z" fill="#0C7478"/>
</svg>
