<svg width="131" height="113" viewBox="0 0 131 113" fill="none" xmlns="http://www.w3.org/2000/svg">
<path d="M45.4274 79.1917V81.1917H47.4274H94.1532C105.745 81.1917 115.172 71.7644 115.172 60.1729V52.459C115.172 48.8401 118.106 45.9066 121.725 45.9066C125.343 45.9066 128.277 48.8403 128.277 52.4586V60.1726C128.277 78.9865 112.967 94.2958 94.1532 94.2958H47.4274H45.4274V96.2958V109.853C45.4274 110.47 44.7405 110.839 44.2261 110.498C44.2261 110.498 44.2261 110.498 44.2261 110.498L10.898 88.3884L10.8979 88.3883C10.437 88.0826 10.4366 87.4054 10.898 87.0992C10.898 87.0991 10.898 87.0991 10.8981 87.0991L44.2261 64.9895L43.1205 63.3229L44.2262 64.9895C44.7401 64.6485 45.4274 65.0171 45.4274 65.6342V79.1917ZM119.378 24.2433L119.379 24.2434C119.84 24.5492 119.84 25.2264 119.379 25.5326L86.0507 47.6421C86.0506 47.6421 86.0506 47.6421 86.0506 47.6422C85.5363 47.9832 84.8493 47.6145 84.8493 46.9974V33.4402V31.4402H82.8493H36.1235C24.532 31.4402 15.1047 40.8675 15.1047 52.459V60.1729C15.1047 63.7914 12.1711 66.7251 8.55221 66.7251C4.93362 66.7251 2 63.7917 2 60.1729V52.459C2 35.7797 14.0363 21.8503 29.882 18.9096L30.0753 18.8737L30.258 18.8008C31.0082 18.5016 31.8246 18.3355 32.6823 18.3355H82.8491H84.8491V16.3355V2.77835C84.8491 2.16117 85.5359 1.79246 86.0503 2.13359C86.0503 2.13361 86.0504 2.13363 86.0504 2.13364L119.378 24.2433Z" fill="#0C7478" stroke="#A2EDF0" stroke-width="4"/>
</svg>
