<svg width="112" height="113" viewBox="0 0 112 113" fill="none" xmlns="http://www.w3.org/2000/svg">
<path d="M106.432 40.4218H109.094V56C109.094 61.3856 106.061 68.9918 98.0537 71.0582L97.78 71.1288L97.6994 71.3997C96.3957 75.7799 93.1783 80.2256 87.3315 81.7779L87.0606 81.8498L86.9806 82.1183C86.1717 84.8319 84.6499 87.5551 82.2394 89.5972C79.8358 91.6335 76.522 93.0159 72.0782 93.0159H52.8379H52.6303L52.4837 93.163L38.014 107.686C35.9997 109.701 32.6379 111.506 28.9886 111.506C26.1757 111.506 23.1938 110.488 20.3919 107.686L4.32119 91.6158C4.31994 91.6145 4.31869 91.6132 4.31745 91.6119C2.55722 89.7725 0.944496 86.9771 0.577825 83.8443C0.213676 80.7331 1.07263 77.2539 4.31327 73.9864C4.31386 73.9858 4.31446 73.9852 4.31505 73.9846L8.11631 70.2369L8.26528 70.0901V69.8809V48.6503L31.9146 25.001L31.9739 24.9417L32.0106 24.8663C34.9407 18.8491 40.6762 13.6247 50.6406 13.6247H64.5215H64.7294L64.8761 13.4772L73.9828 4.3169C75.8223 2.55689 78.6174 0.944458 81.7498 0.577825C84.8614 0.213636 88.341 1.07282 91.6088 4.31434C91.609 4.31458 91.6093 4.31481 91.6095 4.31505L107.679 20.3842C107.68 20.3855 107.681 20.3868 107.683 20.3881C109.442 22.2269 111.055 25.0355 111.422 28.1757C111.786 31.2938 110.927 34.7715 107.689 38.011C107.688 38.012 107.687 38.013 107.686 38.014L106.085 39.5623L105.195 40.4218H106.432ZM77.9377 77.4377V72.5782H82.7971C85.0925 72.5782 86.5923 71.7914 87.5013 70.6074C88.3918 69.4475 88.6565 67.9821 88.6565 66.7188V61.8594H93.5159C95.8114 61.8594 97.3111 61.0726 98.2201 59.8886C99.1106 58.7287 99.3753 57.2633 99.3753 56V50.6406V50.1406H98.8753H61.3594H60.8594V50.6406C60.8594 53.7865 59.8162 57.6922 57.3501 60.8008C54.8982 63.8914 51.0223 66.2188 45.2812 66.2188C39.54 66.2188 35.6641 63.8914 33.2122 60.8008C30.7461 57.6922 29.7029 53.7865 29.7029 50.6406V42.1191V40.912L28.8494 41.7656L18.1305 52.4844L17.9841 52.6308V52.8379V74.0696L11.2169 80.8893L11.2155 80.8906L11.2144 80.8917C10.9291 81.1771 10.4443 81.6618 10.3035 82.3482C10.1525 83.0845 10.4158 83.8988 11.2589 84.8001L11.2649 84.8065L11.2711 84.8126L27.2951 100.783L27.2957 100.784L27.2976 100.786C27.5829 101.071 28.0677 101.556 28.7541 101.696C29.4904 101.848 30.3047 101.584 31.2059 100.741L31.212 100.735L31.2179 100.73L48.6503 83.2971H72.0782C74.3737 83.2971 75.8735 82.5102 76.7825 81.3263C77.673 80.1664 77.9377 78.701 77.9377 77.4377ZM91.3185 40.4218H91.5265L91.6731 40.2743L100.783 31.1107L100.784 31.1097L100.786 31.1082C101.071 30.8229 101.556 30.3382 101.696 29.6518C101.848 28.9155 101.584 28.1012 100.741 27.1999L100.735 27.1935L100.729 27.1874L84.7049 11.2169L84.7043 11.2163L84.7024 11.2144C84.4171 10.9291 83.9323 10.4443 83.2459 10.3035C82.5096 10.1525 81.6953 10.4158 80.7941 11.2589L80.788 11.2646L80.7821 11.2705L68.7091 23.3435H50.6406C45.5659 23.3435 42.7233 25.4946 41.177 28.0171C39.6542 30.5013 39.4218 33.2877 39.4218 34.5623V50.6406C39.4218 51.9039 39.6865 53.3693 40.5769 54.5292C41.4859 55.7132 42.9857 56.5 45.2812 56.5C47.5766 56.5 49.0764 55.7132 49.9854 54.5292C50.8759 53.3693 51.1406 51.9039 51.1406 50.6406V40.4218H91.3185Z" fill="#0C7478" stroke="#A2EDF0"/>
</svg>
