<svg width="116" height="89" viewBox="0 0 116 89" fill="none" xmlns="http://www.w3.org/2000/svg">
<path d="M0 0C6.7361 13.0206 6.9427 25.1811 14.3034 49.9682C23.216 75.6298 56.1182 77.3595 58.5541 77.4075C60.7643 80.8957 65.8235 85.5946 77.4171 88.0257L78.7048 81.9143C68.7015 79.8194 65.0404 75.9613 63.7816 73.8425L63.7575 73.8713C64.1755 71.5458 71.075 48.0368 57.401 28.9383C34.5069 3.56984 0 0 0 0ZM115.311 4.0359C96.5828 6.97153 94.685 -0.384372 60.1877 18.8966C65.8098 25.4644 69.8664 33.2236 72.0512 41.5884C74.2361 49.9532 74.4921 58.705 72.7999 67.1832C90.6875 60.0435 97.6206 48.08 99.7347 36.1165C99.7347 36.1165 105.837 13.4578 115.311 4.0359ZM60.1877 18.8966L60.1781 18.887V18.9062L60.1877 18.8966ZM12.6987 11.435C12.6987 11.435 38.7494 18.2865 53.7447 66.895C39.595 62.6236 33.5508 48.6566 31.4992 42.0646H31.528C27.7827 30.4988 21.3297 19.9967 12.6987 11.435Z" fill="#0BCE83"/>
</svg>
