<svg width="104" height="92" viewBox="0 0 104 92" fill="none" xmlns="http://www.w3.org/2000/svg">
<path d="M62.5715 38.0354C61.6705 37.1346 60.4486 36.6286 59.1746 36.6286C57.9006 36.6286 56.6787 37.1346 55.7777 38.0354L52.3808 41.4275C50.5685 43.1779 48.1412 44.1464 45.6216 44.1245C43.1021 44.1026 40.692 43.092 38.9104 41.3104C37.1287 39.5288 36.1181 37.1186 36.0962 34.5991C36.0743 32.0796 37.0429 29.6523 38.7933 27.8399L65.8434 0.780225C72.2476 -0.676415 78.9481 -0.0769308 84.992 2.49344C91.0359 5.0638 96.1157 9.47421 99.5089 15.0975C102.902 20.7208 104.436 27.2708 103.893 33.8161C103.35 40.3614 100.757 46.5688 96.4826 51.5556L86.3544 61.8135L62.5715 38.0354ZM9.91263 9.1499C14.8843 4.17891 21.3872 1.02996 28.3699 0.212154C35.3527 -0.605656 42.4072 0.955474 48.393 4.64315L31.9947 21.0462C28.4431 24.5907 26.4186 29.3837 26.3538 34.401C26.289 39.4183 28.1889 44.2619 31.6477 47.897C35.1066 51.5322 39.8499 53.6704 44.8642 53.8549C49.8785 54.0393 54.7662 52.2554 58.4827 48.8842L59.1746 48.226L79.5607 68.6073L59.1746 88.9934C57.3726 90.7948 54.9289 91.8068 52.3808 91.8068C49.8328 91.8068 47.3891 90.7948 45.5871 88.9934L9.90782 53.3141C4.0516 47.4574 0.761658 39.5143 0.761658 31.232C0.761658 22.9497 4.05641 15.0066 9.91263 9.1499Z" fill="#0BCE83"/>
</svg>
