<svg width="68" height="97" viewBox="0 0 68 97" fill="none" xmlns="http://www.w3.org/2000/svg">
<path d="M67.6689 33.6449C67.6711 27.8548 66.1784 22.1622 63.3353 17.1182C60.4923 12.0742 56.3952 7.84965 51.4407 4.85339C46.4862 1.85713 40.842 0.190705 35.0546 0.0154184C29.2672 -0.159868 23.5326 1.16192 18.4058 3.85285C13.2791 6.54377 8.93382 10.5127 5.79074 15.3754C2.64765 20.2381 0.813182 25.8298 0.464899 31.6094C0.116617 37.389 1.26632 43.1606 3.80272 48.3655C6.33912 53.5705 10.1763 58.0325 14.9428 61.3196L0.403997 86.4959L11.2433 86.9427L17.0473 96.1051L33.7001 67.2581C33.8154 67.2581 33.9211 67.2773 34.0365 67.2773C34.1518 67.2773 34.2575 67.2629 34.3728 67.2581L51.0257 96.1051L56.945 87.1397L67.6689 86.4959L53.1301 61.3196C57.6157 58.2311 61.283 54.0982 63.8158 49.277C66.3486 44.4557 67.671 39.0909 67.6689 33.6449ZM10.0133 33.6449C10.0133 28.8935 11.4222 24.2489 14.0619 20.2983C16.7016 16.3477 20.4535 13.2686 24.8432 11.4503C29.2328 9.63207 34.0631 9.15633 38.7231 10.0833C43.3832 11.0102 47.6637 13.2982 51.0234 16.6579C54.3831 20.0176 56.6711 24.2981 57.598 28.9582C58.525 33.6182 58.0492 38.4485 56.231 42.8381C54.4127 47.2278 51.3336 50.9797 47.383 53.6194C43.4324 56.2591 38.7878 57.668 34.0365 57.668C27.6651 57.668 21.5547 55.137 17.0495 50.6318C12.5443 46.1266 10.0133 40.0162 10.0133 33.6449Z" fill="#0BCE83"/>
<path d="M34.0365 48.059C41.9971 48.059 48.4504 41.6057 48.4504 33.6451C48.4504 25.6845 41.9971 19.2312 34.0365 19.2312C26.0759 19.2312 19.6226 25.6845 19.6226 33.6451C19.6226 41.6057 26.0759 48.059 34.0365 48.059Z" fill="#0BCE83"/>
</svg>
