<svg width="105" height="175" viewBox="0 0 105 175" fill="none" xmlns="http://www.w3.org/2000/svg">
<path d="M78.1325 158.919C71.2212 163.921 64.5357 168.786 57.7799 173.702C57.8089 173.776 57.5193 173.377 57.5154 172.974C57.386 159.85 57.1398 146.689 60.4988 133.862C62.1505 127.555 65.7367 122.419 70.9302 118.221C81.0134 110.072 92.2573 104.002 104.445 98.1147C104.445 103.351 104.749 108.021 104.372 112.636C103.835 119.209 103.301 125.854 101.863 132.266C99.2471 143.933 90.7907 151.095 81.1232 157.068C80.2008 157.638 79.2799 158.21 78.1325 158.919Z" fill="#7519EB"/>
<path d="M42.6735 170.983C35.7131 166.009 29.2116 160.752 22.1003 156.52C7.87251 148.052 0.851815 135.623 0.233951 119.373C-0.0255162 112.549 0.190763 105.706 0.190763 98.427C11.3736 103.633 21.7138 109.384 31.3313 116.55C41.2707 123.955 45.5055 133.966 45.848 145.881C46.1143 155.146 45.9012 164.425 45.9012 174.088C44.9552 173.179 43.9059 172.172 42.6735 170.983Z" fill="#A259FF"/>
<path d="M0.0174941 45.4935C0.0158081 43.4713 0.0158081 41.7973 0.0158081 39.8123C0.99076 40.0264 1.71419 40.023 2.26392 40.3303C10.9828 45.2044 19.8321 49.8692 28.3426 55.0859C39.0341 61.6394 44.7312 71.6136 45.6849 84C46.4607 94.0747 46.5293 104.204 46.949 115.3C43.2236 112.135 40.4485 109.377 37.288 107.173C30.1841 102.217 22.7697 97.7042 15.7014 92.7007C6.44761 86.1501 1.94941 76.7403 0.923443 65.682C0.312532 59.0973 0.300471 52.457 0.0174941 45.4935Z" fill="#A259FF"/>
<path d="M60.869 73.6124C63.9247 68.8771 66.2784 63.79 70.0022 60.077C79.5329 50.5739 91.9208 45.4934 104.499 39.2026C104.499 42.0779 104.633 44.3075 104.475 46.5164C103.911 54.4288 103.707 62.4039 102.519 70.2265C100.528 83.3421 91.8829 91.7588 80.9399 98.0628C72.8556 102.72 65.1326 107.778 58.7332 114.655C58.5261 114.878 58.1536 114.946 57.0847 115.454C57.5633 105.031 57.8577 95.0881 58.5572 85.1742C58.8251 81.378 60.0191 77.6472 60.869 73.6124Z" fill="#A259FF"/>
<path d="M58.307 55.6962C56.152 58.7172 54.1481 61.5209 51.8061 64.7976C45.5474 54.7623 38.311 45.7143 38.714 33.7198C38.8751 28.9251 40.3504 23.9891 42.1395 19.4793C44.6379 13.1818 47.991 7.22322 50.9783 1.11961C51.5116 0.825832 52.0448 0.532056 52.578 0.238281C53.119 1.32238 53.621 2.42803 54.2071 3.48721C59.1023 12.3345 64.1108 21.0899 65.5787 31.3861C66.3672 36.9163 64.8697 41.8762 62.8593 46.7739C61.6284 49.7725 59.9406 52.5836 58.307 55.6962Z" fill="#A259FF"/>
</svg>
