<svg width="30" height="29" viewBox="0 0 30 29" fill="none" xmlns="http://www.w3.org/2000/svg">
<path d="M26.4977 0C27.3523 0 28.1719 0.339483 28.7762 0.943767C29.3805 1.54805 29.72 2.36764 29.72 3.22222V25.7778C29.72 26.6324 29.3805 27.4519 28.7762 28.0562C28.1719 28.6605 27.3523 29 26.4977 29H3.94219C3.08761 29 2.26802 28.6605 1.66374 28.0562C1.05945 27.4519 0.719971 26.6324 0.719971 25.7778V3.22222C0.719971 2.36764 1.05945 1.54805 1.66374 0.943767C2.26802 0.339483 3.08761 0 3.94219 0H26.4977ZM25.6922 24.9722V16.4333C25.6922 15.0404 25.1388 13.7044 24.1539 12.7195C23.1689 11.7345 21.8329 11.1811 20.44 11.1811C19.0705 11.1811 17.4755 12.0189 16.7022 13.2756V11.4872H12.2072V24.9722H16.7022V17.0294C16.7022 15.7889 17.7011 14.7739 18.9416 14.7739C19.5398 14.7739 20.1136 15.0115 20.5366 15.4345C20.9596 15.8575 21.1972 16.4312 21.1972 17.0294V24.9722H25.6922ZM6.97108 8.95778C7.68893 8.95778 8.37739 8.67261 8.88498 8.16501C9.39258 7.65742 9.67775 6.96896 9.67775 6.25111C9.67775 4.75278 8.46942 3.52833 6.97108 3.52833C6.24896 3.52833 5.55641 3.8152 5.04579 4.32582C4.53517 4.83644 4.2483 5.52899 4.2483 6.25111C4.2483 7.74944 5.47275 8.95778 6.97108 8.95778ZM9.21053 24.9722V11.4872H4.74775V24.9722H9.21053Z" fill="black"/>
</svg>
