<svg width="130" height="115" viewBox="0 0 130 115" fill="none" xmlns="http://www.w3.org/2000/svg">
<g clip-path="url(#clip0_110_2)">
<path d="M122.682 2.17862C121.424 -0.628996 117.83 -0.741301 116.325 1.90909C109.363 14.0155 96.8967 21.5624 82.6565 21.5624H64.6877C40.8791 21.5624 21.5627 40.8788 21.5627 64.6874C21.5627 66.2597 21.7424 67.7646 21.8996 69.2919C36.2297 59.0273 56.9162 50.3124 86.2502 50.3124C88.2268 50.3124 89.844 51.9296 89.844 53.9062C89.844 55.8827 88.2268 57.4999 86.2502 57.4999C29.7834 57.4999 5.84007 92.1122 0.539286 105.117C-0.943136 108.778 0.808817 112.956 4.46995 114.461C8.15354 115.988 12.3313 114.214 13.8586 110.575C14.1955 109.767 18.553 99.8163 30.008 90.2255C37.2854 100.086 51.1213 109.497 69.2922 107.565C104.556 105.005 129.375 73.3798 129.375 34.6571C129.375 23.3817 126.949 11.7021 122.682 2.17862Z" fill="#0C7478"/>
</g>
<defs>
<clipPath id="clip0_110_2">
<rect width="129.375" height="115" fill="white"/>
</clipPath>
</defs>
</svg>
