<svg width="30" height="29" viewBox="0 0 30 29" fill="none" xmlns="http://www.w3.org/2000/svg">
<path d="M14.86 0C12.9085 0 10.9762 0.384365 9.17332 1.13115C7.37042 1.87793 5.73227 2.97251 4.35239 4.35239C1.5656 7.13918 0 10.9189 0 14.86C0 21.4281 4.26482 27.0006 10.1642 28.977C10.9072 29.0959 11.145 28.6352 11.145 28.234V25.7226C7.02878 26.6142 6.15204 23.7314 6.15204 23.7314C5.46848 22.0076 4.50258 21.547 4.50258 21.547C3.15032 20.6257 4.6066 20.6554 4.6066 20.6554C6.0926 20.7594 6.88018 22.186 6.88018 22.186C8.17299 24.4447 10.3574 23.776 11.2044 23.4193C11.3382 22.4534 11.7245 21.7996 12.1406 21.4281C8.84169 21.0566 5.37932 19.7786 5.37932 14.117C5.37932 12.4675 5.944 11.145 6.9099 10.0899C6.7613 9.71843 6.2412 8.173 7.0585 6.1669C7.0585 6.1669 8.30674 5.76568 11.145 7.68262C12.3189 7.3557 13.5969 7.19224 14.86 7.19224C16.1231 7.19224 17.401 7.3557 18.575 7.68262C21.4132 5.76568 22.6615 6.1669 22.6615 6.1669C23.4788 8.173 22.9587 9.71843 22.8101 10.0899C23.776 11.145 24.3407 12.4675 24.3407 14.117C24.3407 19.7935 20.8634 21.0417 17.5496 21.4132C18.0846 21.8739 18.575 22.7804 18.575 24.1623V28.234C18.575 28.6352 18.8127 29.1107 19.5706 28.977C25.47 26.9857 29.72 21.4281 29.72 14.86C29.72 12.9085 29.3356 10.9762 28.5888 9.17332C27.842 7.37042 26.7475 5.73227 25.3676 4.35239C23.9877 2.97251 22.3496 1.87793 20.5467 1.13115C18.7438 0.384365 16.8114 0 14.86 0Z" fill="black"/>
</svg>
