<svg width="171" height="171" viewBox="0 0 171 171" fill="none" xmlns="http://www.w3.org/2000/svg">
<path d="M130.922 0H40.0781C17.9436 0 0 17.9436 0 40.0781V130.922C0 153.056 17.9436 171 40.0781 171H130.922C153.056 171 171 153.056 171 130.922V40.0781C171 17.9436 153.056 0 130.922 0Z" fill="#242938"/>
<mask id="mask0_133_1523" style="mask-type:luminance" maskUnits="userSpaceOnUse" x="40" y="18" width="90" height="135">
<path d="M40.7461 18.7031H129.826V152.297H40.7461V18.7031Z" fill="white"/>
</mask>
<g mask="url(#mask0_133_1523)">
<path d="M63.0208 152.297C75.3115 152.297 85.2862 142.322 85.2862 130.031V107.765H63.0208C50.7302 107.765 40.7548 117.741 40.7548 130.031C40.7548 142.322 50.7302 152.297 63.0208 152.297Z" fill="#0ACF83"/>
<path d="M40.7548 85.5C40.7548 73.2094 50.7302 63.2346 63.0208 63.2346H85.2862V107.765H63.0208C50.7302 107.765 40.7548 97.7906 40.7548 85.5Z" fill="#A259FF"/>
<path d="M40.7549 40.9685C40.7549 28.6779 50.7304 18.7031 63.021 18.7031H85.2864V63.2346H63.021C50.7304 63.2346 40.7549 53.2592 40.7549 40.9685Z" fill="#F24E1E"/>
<path d="M85.2863 18.7031H107.552C119.842 18.7031 129.818 28.6779 129.818 40.9685C129.818 53.2592 119.842 63.2346 107.552 63.2346H85.2863V18.7031Z" fill="#FF7262"/>
<path d="M129.818 85.5C129.818 97.7906 119.842 107.765 107.552 107.765C95.261 107.765 85.2863 97.7906 85.2863 85.5C85.2863 73.2094 95.261 63.2346 107.552 63.2346C119.842 63.2346 129.818 73.2094 129.818 85.5Z" fill="#1ABCFE"/>
</g>
</svg>
